<?xml version="1.0" standalone="no"?>
<!DOCTYPE svg PUBLIC "-//W3C//DTD SVG 20010904//EN"
 "http://www.w3.org/TR/2001/REC-SVG-20010904/DTD/svg10.dtd">
<svg version="1.0" xmlns="http://www.w3.org/2000/svg"
 width="500.000000pt" height="500.000000pt" viewBox="0 0 500.000000 500.000000"
 preserveAspectRatio="xMidYMid meet">
<metadata>
Created by potrace 1.11, written by Peter Selinger 2001-2013
</metadata>
<g transform="translate(0.000000,500.000000) scale(0.100000,-0.100000)"
fill="#000000" stroke="none">
<path d="M0 2500 l0 -2501 1373 4 c754 2 1395 7 1422 11 417 59 655 127 930
266 552 279 910 687 1122 1280 33 94 84 277 98 355 8 44 12 65 19 109 29 164
42 587 23 766 -36 350 -115 636 -257 925 -155 315 -347 555 -610 761 -269 211
-654 387 -1000 457 -120 25 -144 29 -255 42 -27 3 -63 9 -80 12 -16 4 -650 8
-1407 10 l-1378 4 0 -2501z m1930 790 c0 -431 1 -460 18 -461 9 0 195 0 412 0
l395 0 2 398 c1 219 3 426 3 461 l0 62 338 0 339 0 0 -1250 0 -1250 -339 0
c-263 0 -338 3 -338 13 -1 6 -2 226 -3 487 l-2 475 -412 3 -413 2 0 -490 0
-490 -340 0 -340 0 0 1250 0 1250 340 0 340 0 0 -460z"/>
</g>
</svg>
