<svg width="20" height="17" viewBox="0 0 20 17" fill="none" xmlns="http://www.w3.org/2000/svg">
<path d="M7 10.5948C4.66 10.5948 0 12.0115 0 14.8328V16.9517H14V14.8328C14 12.0115 9.34 10.5948 7 10.5948ZM2.34 14.53C3.18 13.8278 5.21 13.0165 7 13.0165C8.79 13.0165 10.82 13.8278 11.66 14.53H2.34ZM7 8.47586C8.93 8.47586 10.5 6.57485 10.5 4.23793C10.5 1.90101 8.93 0 7 0C5.07 0 3.5 1.90101 3.5 4.23793C3.5 6.57485 5.07 8.47586 7 8.47586ZM7 2.42167C7.83 2.42167 8.5 3.23294 8.5 4.23793C8.5 5.24293 7.83 6.05419 7 6.05419C6.17 6.05419 5.5 5.24293 5.5 4.23793C5.5 3.23294 6.17 2.42167 7 2.42167ZM14.04 10.6675C15.2 11.6846 16 13.0407 16 14.8328V16.9517H20V14.8328C20 12.3869 16.5 10.9944 14.04 10.6675ZM13 8.47586C14.93 8.47586 16.5 6.57485 16.5 4.23793C16.5 1.90101 14.93 0 13 0C12.46 0 11.96 0.157409 11.5 0.423793C12.13 1.50144 12.5 2.82125 12.5 4.23793C12.5 5.65461 12.13 6.97442 11.5 8.05207C11.96 8.31845 12.46 8.47586 13 8.47586Z" fill="#46C8D3" fill-opacity="0.9"/>
</svg>
