<svg width="21" height="20" viewBox="0 0 21 20" fill="none" xmlns="http://www.w3.org/2000/svg">
<path d="M10.0041 4.80176C8.98636 4.80176 7.9915 5.10344 7.14529 5.66866C6.29909 6.23388 5.63956 7.03725 5.25009 7.97718C4.86063 8.91711 4.75873 9.95138 4.95727 10.9492C5.15582 11.947 5.6459 12.8636 6.36554 13.583C7.08517 14.3024 8.00204 14.7923 9.00021 14.9907C9.99837 15.1892 11.033 15.0874 11.9732 14.698C12.9135 14.3087 13.7171 13.6494 14.2826 12.8035C14.848 11.9576 15.1498 10.963 15.1498 9.94567C15.1485 8.58182 14.6059 7.27421 13.6412 6.30982C12.6765 5.34543 11.3684 4.80306 10.0041 4.80176ZM10.0041 13.2482C9.35067 13.2482 8.71193 13.0546 8.16864 12.6917C7.62535 12.3288 7.20191 11.813 6.95186 11.2095C6.70181 10.606 6.63638 9.94201 6.76386 9.30137C6.89133 8.66074 7.20598 8.07228 7.66801 7.6104C8.13004 7.14853 8.7187 6.83399 9.35956 6.70656C10.0004 6.57913 10.6647 6.64453 11.2684 6.89449C11.872 7.14446 12.388 7.56776 12.751 8.11086C13.114 8.65397 13.3078 9.29249 13.3078 9.94567C13.3065 10.8212 12.958 11.6604 12.3387 12.2795C11.7194 12.8986 10.8799 13.2469 10.0041 13.2482Z" fill="white"/>
<path d="M15.3413 5.84514C15.9876 5.84514 16.5116 5.32114 16.5116 4.67476C16.5116 4.02839 15.9876 3.50439 15.3413 3.50439C14.6949 3.50439 14.1709 4.02839 14.1709 4.67476C14.1709 5.32114 14.6949 5.84514 15.3413 5.84514Z" fill="white"/>
<path d="M18.3887 1.63718C17.8293 1.09462 17.1662 0.670303 16.439 0.389562C15.7119 0.108821 14.9357 -0.0225908 14.1566 0.0031713H5.85045C2.35415 0.0031713 0.0035362 2.35298 0.0035362 5.84808V14.107C-0.024148 14.9014 0.110954 15.693 0.40054 16.4333C0.690126 17.1735 1.12808 17.8468 1.68749 18.4117C2.82525 19.4751 4.33802 20.0449 5.8949 19.9963H14.1122C15.682 20.0516 17.2095 19.4817 18.3591 18.4117C18.9095 17.8501 19.3396 17.1822 19.6232 16.4489C19.9068 15.7156 20.0379 14.9321 20.0085 14.1465V5.84808C20.0324 5.07376 19.9015 4.30244 19.6233 3.57936C19.3452 2.85628 18.9255 2.19598 18.3887 1.63718ZM18.1616 14.1465C18.1902 14.6884 18.1082 15.2304 17.9206 15.7397C17.733 16.2489 17.4437 16.7146 17.0702 17.1084C16.261 17.8381 15.1957 18.2179 14.1072 18.1648H5.8949C4.81493 18.2066 3.76226 17.8198 2.9665 17.0887C2.58875 16.6964 2.29427 16.2317 2.10078 15.7227C1.90729 15.2137 1.81878 14.6708 1.84057 14.1267V5.84808C1.81167 5.30739 1.8921 4.76642 2.07707 4.2575C2.26204 3.74859 2.54775 3.28217 2.91712 2.88613C3.31027 2.52339 3.7716 2.24234 4.2743 2.05929C4.77701 1.87625 5.31108 1.79485 5.84551 1.81983H14.1566C14.6929 1.79647 15.2285 1.881 15.7315 2.0684C16.2345 2.25581 16.6948 2.54227 17.085 2.91082C17.4485 3.3008 17.7309 3.75911 17.9157 4.25911C18.1005 4.75911 18.1841 5.29083 18.1616 5.8234V14.1465Z" fill="white"/>
</svg>
