<svg width="15" height="20" viewBox="0 0 15 20" fill="none" xmlns="http://www.w3.org/2000/svg">
<path d="M7.74955 0C2.59784 0 0 3.91298 0 7.17673C0 9.15251 0.706055 10.9101 2.22017 11.5646C2.46854 11.673 2.69113 11.5686 2.76317 11.2773C2.81323 11.0765 2.93191 10.5678 2.98462 10.3553C3.05705 10.0673 3.02898 9.96684 2.82839 9.71495C2.39194 9.16978 2.11248 8.46352 2.11248 7.46237C2.11248 4.55938 4.16277 1.9605 7.45112 1.9605C10.3629 1.9605 11.9627 3.84548 11.9627 6.3624C11.9627 9.67517 10.5791 12.4709 8.52537 12.4709C7.39083 12.4709 6.5422 11.4774 6.8137 10.2581C7.13943 8.80259 7.77078 7.23258 7.77078 6.18122C7.77078 5.24114 7.29414 4.45693 6.30862 4.45693C5.14905 4.45693 4.21737 5.72805 4.21737 7.43023C4.21737 8.51454 4.5632 9.24812 4.5632 9.24812C4.5632 9.24812 3.3767 14.5752 3.16853 15.5081C2.75445 17.3661 3.10634 19.6432 3.1363 19.873C3.15374 20.0096 3.31907 20.0425 3.39415 19.9397C3.5007 19.7915 4.88247 17.9852 5.35153 16.1798C5.48463 15.6692 6.11409 13.0225 6.11409 13.0225C6.49101 13.7842 7.59218 14.4535 8.76313 14.4535C12.2483 14.4535 14.6133 11.0873 14.6133 6.58135C14.6137 3.17337 11.8896 0 7.74955 0Z" fill="white"/>
</svg>
