<svg width="25" height="20" viewBox="0 0 25 20" fill="none" xmlns="http://www.w3.org/2000/svg">
<path d="M24.6864 2.36897C23.7622 2.77769 22.782 3.04563 21.7783 3.16387C22.8347 2.53531 23.6262 1.54374 24.0051 0.374307C23.0095 0.962663 21.9208 1.37676 20.7859 1.59875C20.024 0.787053 19.0159 0.248951 17.9175 0.0676402C16.8191 -0.113671 15.6916 0.0719069 14.7092 0.595682C13.7269 1.11946 12.9444 1.95226 12.4828 2.96533C12.0212 3.9784 11.9062 5.11531 12.1556 6.2003C10.1437 6.10073 8.17513 5.57994 6.3772 4.67162C4.57927 3.7633 2.99204 2.48768 1.71817 0.927282C1.07048 2.03884 0.872288 3.35598 1.16418 4.60892C1.45608 5.86187 2.21597 6.9558 3.28823 7.66667C2.4819 7.6424 1.69305 7.42572 0.987456 7.0347C0.987456 7.0347 0.987456 7.07913 0.987456 7.09888C0.992099 8.26404 1.39905 9.39183 2.13947 10.2915C2.87989 11.1912 3.90833 11.8075 5.05084 12.0362C4.30509 12.2372 3.52336 12.2659 2.76488 12.1201C3.09044 13.124 3.72112 14.0012 4.56898 14.6296C5.41684 15.258 6.43964 15.6061 7.49479 15.6256C5.69939 17.0257 3.48646 17.7837 1.20963 17.7782C0.805902 17.7869 0.402008 17.772 0 17.7338C2.31685 19.2166 5.01067 20.0031 7.7614 20C17.0781 20 22.1733 12.3077 22.1733 5.63745C22.1733 5.42021 22.1733 5.20297 22.1733 4.98573C23.1597 4.26961 24.0107 3.38352 24.6864 2.36897Z" fill="white"/>
</svg>
